<svg width="261" height="184" viewBox="0 0 261 184" fill="none" xmlns="http://www.w3.org/2000/svg">
<path d="M132.539 127.363C78.7078 127.363 33.8484 115.575 23.6531 100.05C42.4125 140.588 30.9938 178.25 132.539 178.25C234.084 178.25 222.666 140.588 241.425 100.05C231.23 115.575 186.37 127.363 132.539 127.363Z" fill="#3E4347"/>
<path d="M82.3781 58.9375C139.88 47.725 272.011 64.6875 243.056 103.212C258.961 115.862 264.67 129.375 188.817 128.512C72.1828 147.775 -24.0609 107.812 18.3516 77.625C8.15625 62.9625 30.5859 55.4875 82.3781 58.9375Z" fill="#6F7980"/>
<path d="M132.539 125.637C183.516 125.637 225.928 114.425 235.716 99.7625C236.531 98.325 236.939 96.8875 237.755 95.45C237.755 94.5875 238.163 94.0125 238.163 93.15C238.163 75.325 190.856 60.95 132.947 60.95C75.0375 60.95 27.7313 75.325 27.7313 93.15C27.7313 94.0125 27.7313 94.5875 28.1391 95.45C28.5469 96.8875 29.3625 98.325 30.1781 99.7625C39.15 114.425 81.5625 125.637 132.539 125.637Z" fill="#3E4347"/>
<path d="M132.539 125.638C183.516 125.638 225.928 114.425 235.716 99.7625C235.716 99.1875 236.123 98.9 236.123 98.325C227.559 83.0875 184.331 71.5875 132.131 71.5875C79.9313 71.5875 36.7031 83.0875 28.1391 98.325C28.5469 98.9 28.5469 99.1875 28.5469 99.7625C39.15 114.425 81.5625 125.638 132.539 125.638Z" fill="#FBBF67"/>
<path d="M146.812 87.4C126.422 87.1125 101.545 98.6125 84.825 97.75C57.0937 96.3125 85.6406 105.8 105.216 105.8C118.266 105.8 127.237 97.4625 134.17 94.0125C143.958 89.7 168.019 87.6875 146.812 87.4Z" fill="#D33B23"/>
<path d="M86.4563 77.9125C81.1547 67.5625 50.5687 84.525 76.6687 88.2625C80.7469 88.8375 90.9422 87.1125 86.4563 77.9125Z" fill="#FF8736"/>
<path d="M145.589 110.4C139.064 97.75 101.137 118.737 133.763 123.05C138.656 123.625 151.298 121.612 145.589 110.4Z" fill="#FF8736"/>
<path d="M152.522 74.1749C146.405 63.8249 108.478 80.7874 140.695 84.5249C145.181 84.8124 157.823 83.0874 152.522 74.1749Z" fill="#FF8736"/>
<path d="M214.917 85.3874C212.47 74.1749 163.941 80.4999 197.381 92.2874C202.275 94.0124 216.956 95.4499 214.917 85.3874Z" fill="#FF8736"/>
<path d="M61.5797 95.45C57.0938 91.1375 50.5688 85.3875 48.1219 88.2625C44.4516 92.2875 43.2281 100.337 46.0828 100.625C66.4734 103.5 64.8422 98.9 61.5797 95.45Z" fill="#89664C"/>
<path d="M173.728 87.3999C166.387 89.6999 161.902 87.9749 158.639 91.4249C150.891 99.1874 177.398 101.775 182.292 97.1749C185.962 94.0124 178.622 85.9624 173.728 87.3999Z" fill="#89664C"/>
<path d="M179.845 106.662C174.544 104.937 175.767 110.687 167.611 106.087C161.902 102.925 149.667 110.975 157.823 116.437C166.795 122.475 169.242 116.725 172.913 117.3C180.661 118.162 194.119 110.975 179.845 106.662Z" fill="#89664C"/>
<path d="M90.1266 108.387C85.2328 104.937 77.4844 114.712 80.3391 117.3C86.4562 123.05 108.478 121.9 114.187 117.587C121.528 112.412 101.953 116.437 90.1266 108.387Z" fill="#89664C"/>
<path d="M71.3672 105.513C71.3672 105.513 71.775 108.963 72.5906 110.4C67.2891 108.963 67.2891 102.35 67.2891 102.35C67.2891 102.35 63.6187 103.788 64.0266 106.375C58.3172 102.925 53.4234 104.65 53.4234 104.65C53.4234 104.65 60.7641 107.525 61.9875 109.538C57.9094 109.825 55.4625 110.688 53.8312 112.988C53.8312 112.988 61.9875 110.113 68.1047 112.125C65.6578 113.563 66.8812 117.013 66.8812 117.013C76.6687 109.825 82.7859 116.15 87.2719 114.425C83.6016 110.975 78.3 110.4 78.3 110.4C76.2609 107.525 71.3672 105.513 71.3672 105.513Z" fill="#699635"/>
<path d="M115.411 77.3376C110.517 76.7626 105.623 78.4875 105.623 78.4875C105.623 78.4875 110.109 79.9251 112.148 80.5001C107.663 83.0876 99.5062 79.6376 99.5062 79.6376C99.5062 79.6376 99.5063 82.5126 102.769 83.6626C95.8359 85.3876 95.0203 89.4126 95.0203 89.4126C95.0203 89.4126 102.361 86.5376 105.216 86.8251C103.177 89.4126 103.177 91.4251 105.623 93.4376C105.623 93.4376 106.439 87.1126 112.148 84.5251C112.556 86.8251 117.45 87.6876 117.45 87.6876C113.78 78.2001 124.791 77.625 124.791 74.175C119.081 74.175 115.411 77.3376 115.411 77.3376Z" fill="#699635"/>
<path d="M210.431 103.213C212.47 101.775 221.034 100.912 221.034 100.912C221.034 100.912 217.364 98.0375 210.023 99.475C211.655 97.175 209.208 94.875 209.208 94.875C209.208 94.875 205.537 100.912 199.828 100.912C201.459 99.475 203.498 96.6 203.498 96.6C203.498 96.6 197.789 97.4625 194.527 100.05C194.527 100.05 189.225 98.9 184.331 101.2C187.186 104.075 196.566 99.7625 201.459 108.963C201.459 108.963 204.314 106.088 203.091 104.075C209.616 103.788 215.733 108.675 215.733 108.675C215.733 106.087 214.102 104.65 210.431 103.213Z" fill="#699635"/>
<g opacity="0.6">
<path opacity="0.6" d="M135.802 32.775C120.712 21.85 130.908 5.75 130.908 5.75C130.908 5.75 99.0984 27.025 119.081 41.6875C142.327 58.65 130.908 69 130.908 69C130.908 69 159.455 50.025 135.802 32.775Z" fill="#A6AEB0"/>
<path opacity="0.6" d="M90.9422 42.55C79.5234 34.7875 87.2719 23 87.2719 23C87.2719 23 63.6187 38.525 78.7078 49.1625C96.2437 61.525 87.2719 69 87.2719 69C87.2719 69 108.478 55.2 90.9422 42.55Z" fill="#A6AEB0"/>
<path opacity="0.6" d="M180.661 42.55C169.242 34.7875 176.991 23 176.991 23C176.991 23 153.337 38.525 168.427 49.1625C185.962 61.525 176.991 69 176.991 69C176.991 69 198.197 55.2 180.661 42.55Z" fill="#A6AEB0"/>
</g>
</svg>
